<?xml version="1.0" encoding="UTF-8"?>
<svg id="Layer_2" data-name="Layer 2" xmlns="http://www.w3.org/2000/svg" xmlns:xlink="http://www.w3.org/1999/xlink" viewBox="0 0 886.13 743.5">
  <defs>
    <style>
      .cls-1 {
        fill: url(#linear-gradient-15);
      }

      .cls-2 {
        fill: url(#linear-gradient-13);
      }

      .cls-3 {
        fill: url(#New_Gradient_Swatch_1-3);
      }

      .cls-4 {
        fill: url(#linear-gradient-2);
      }

      .cls-5 {
        fill: url(#linear-gradient-10);
      }

      .cls-6 {
        fill: url(#linear-gradient-12);
      }

      .cls-7 {
        fill: #fff;
      }

      .cls-8 {
        fill: #1e1e1e;
      }

      .cls-9 {
        fill: url(#linear-gradient-4);
      }

      .cls-10 {
        fill: url(#linear-gradient-3);
      }

      .cls-11 {
        fill: url(#linear-gradient-5);
      }

      .cls-12 {
        fill: url(#linear-gradient-22);
      }

      .cls-13 {
        fill: url(#linear-gradient-8);
      }

      .cls-14 {
        fill: url(#linear-gradient-14);
      }

      .cls-15 {
        fill: url(#New_Gradient_Swatch_1-2);
      }

      .cls-16 {
        fill: url(#linear-gradient-20);
      }

      .cls-17 {
        fill: url(#linear-gradient-17);
      }

      .cls-18 {
        fill: url(#linear-gradient-7);
      }

      .cls-19 {
        fill: url(#linear-gradient-9);
      }

      .cls-20 {
        fill: url(#linear-gradient-11);
      }

      .cls-21 {
        fill: url(#linear-gradient-19);
      }

      .cls-22 {
        fill: url(#linear-gradient-6);
      }

      .cls-23 {
        fill: url(#linear-gradient-21);
      }

      .cls-24 {
        fill: url(#linear-gradient-16);
      }

      .cls-25 {
        fill: url(#linear-gradient);
      }

      .cls-26 {
        fill: url(#New_Gradient_Swatch_1);
      }

      .cls-27 {
        fill: #9dca77;
      }

      .cls-28 {
        fill: url(#linear-gradient-18);
      }
    </style>
    <linearGradient id="linear-gradient" x1="98.32" y1="371.75" x2="799.82" y2="371.75" gradientUnits="userSpaceOnUse">
      <stop offset="0" stop-color="#f3dc80"/>
      <stop offset=".04" stop-color="#e1c974"/>
      <stop offset=".14" stop-color="#bca05b"/>
      <stop offset=".23" stop-color="#9e8048"/>
      <stop offset=".32" stop-color="#89693a"/>
      <stop offset=".41" stop-color="#7c5b31"/>
      <stop offset=".49" stop-color="#78572f"/>
      <stop offset="1" stop-color="#f3dc80"/>
    </linearGradient>
    <linearGradient id="linear-gradient-2" x1="58.59" y1="256.81" x2="60.87" y2="473.38" gradientUnits="userSpaceOnUse">
      <stop offset="0" stop-color="#e5e2df"/>
      <stop offset="0" stop-color="#ded9d6"/>
      <stop offset=".34" stop-color="#e8e6e4"/>
      <stop offset=".62" stop-color="#f3f4f4"/>
      <stop offset=".67" stop-color="#e4e5e5"/>
      <stop offset=".76" stop-color="#bfbec0"/>
      <stop offset=".89" stop-color="#847f84"/>
      <stop offset=".9" stop-color="#807b80"/>
    </linearGradient>
    <linearGradient id="linear-gradient-3" x1="246.04" y1="254.9" x2="248.32" y2="471.46" xlink:href="#linear-gradient-2"/>
    <linearGradient id="linear-gradient-4" x1="341.86" y1="253.9" x2="344.14" y2="470.5" xlink:href="#linear-gradient-2"/>
    <linearGradient id="linear-gradient-5" x1="442.35" y1="252.88" x2="444.63" y2="469.46" xlink:href="#linear-gradient-2"/>
    <linearGradient id="linear-gradient-6" x1="631.1" y1="250.95" x2="633.38" y2="467.54" xlink:href="#linear-gradient-2"/>
    <linearGradient id="linear-gradient-7" x1="822.18" y1="248.99" x2="824.46" y2="465.59" xlink:href="#linear-gradient-2"/>
    <linearGradient id="linear-gradient-8" x1="152.64" y1="255.85" x2="154.92" y2="472.43" xlink:href="#linear-gradient-2"/>
    <linearGradient id="linear-gradient-9" x1="539.29" y1="251.9" x2="541.57" y2="468.48" xlink:href="#linear-gradient-2"/>
    <linearGradient id="linear-gradient-10" x1="725.9" y1="249.99" x2="728.18" y2="466.57" xlink:href="#linear-gradient-2"/>
    <linearGradient id="New_Gradient_Swatch_1" data-name="New Gradient Swatch 1" x1="25.93" y1="537.19" x2="860.2" y2="537.19" gradientUnits="userSpaceOnUse">
      <stop offset="0" stop-color="#f3dc80"/>
      <stop offset=".08" stop-color="#e1c974"/>
      <stop offset=".28" stop-color="#bca05b"/>
      <stop offset=".48" stop-color="#9e8048"/>
      <stop offset=".67" stop-color="#89693a"/>
      <stop offset=".84" stop-color="#7c5b31"/>
      <stop offset="1" stop-color="#78572f"/>
    </linearGradient>
    <linearGradient id="New_Gradient_Swatch_1-2" data-name="New Gradient Swatch 1" x1="195.33" y1="177.37" x2="232.59" y2="177.37" xlink:href="#New_Gradient_Swatch_1"/>
    <linearGradient id="New_Gradient_Swatch_1-3" data-name="New Gradient Swatch 1" x1="195.33" y1="223.41" x2="232.59" y2="223.41" xlink:href="#New_Gradient_Swatch_1"/>
    <linearGradient id="linear-gradient-11" x1="231.34" y1="118.7" x2="280.38" y2="266.35" gradientUnits="userSpaceOnUse">
      <stop offset="0" stop-color="#a7a9ac"/>
      <stop offset="0" stop-color="#d1d3d4"/>
      <stop offset=".12" stop-color="#807b80"/>
      <stop offset=".14" stop-color="#847f84"/>
      <stop offset=".3" stop-color="#bfbec0"/>
      <stop offset=".42" stop-color="#e4e5e5"/>
      <stop offset=".48" stop-color="#f3f4f4"/>
      <stop offset=".74" stop-color="#8b878d"/>
      <stop offset=".82" stop-color="#a8a4a6"/>
      <stop offset=".94" stop-color="#cfcac8"/>
      <stop offset="1" stop-color="#ded9d6"/>
      <stop offset="1" stop-color="#e5e2df"/>
    </linearGradient>
    <linearGradient id="linear-gradient-12" x1="267.04" y1="106.84" x2="316.09" y2="254.49" xlink:href="#linear-gradient-11"/>
    <linearGradient id="linear-gradient-13" x1="302.94" y1="94.91" x2="351.99" y2="242.57" xlink:href="#linear-gradient-11"/>
    <linearGradient id="linear-gradient-14" x1="339.52" y1="464" x2="352.05" y2="639.31" xlink:href="#linear-gradient-11"/>
    <linearGradient id="linear-gradient-15" x1="395.02" y1="460.04" x2="407.55" y2="635.34" xlink:href="#linear-gradient-11"/>
    <linearGradient id="linear-gradient-16" x1="454.74" y1="455.78" x2="467.26" y2="631.08" xlink:href="#linear-gradient-11"/>
    <linearGradient id="linear-gradient-17" x1="523.19" y1="450.89" x2="535.71" y2="626.19" xlink:href="#linear-gradient-11"/>
    <linearGradient id="linear-gradient-18" x1="583.82" y1="446.55" x2="596.35" y2="621.86" xlink:href="#linear-gradient-11"/>
    <linearGradient id="linear-gradient-19" x1="295.88" y1="536.67" x2="299.17" y2="582.72" xlink:href="#linear-gradient-11"/>
    <linearGradient id="linear-gradient-20" x1="0" y1="255.32" x2="886.13" y2="255.32" xlink:href="#linear-gradient"/>
    <linearGradient id="linear-gradient-21" x1="405.02" y1="641.67" x2="419.81" y2="654.07" gradientUnits="userSpaceOnUse">
      <stop offset="0" stop-color="#e5e2df"/>
      <stop offset="0" stop-color="#ded9d6"/>
      <stop offset=".06" stop-color="#cfcac8"/>
      <stop offset=".18" stop-color="#a8a4a6"/>
      <stop offset=".26" stop-color="#8b878d"/>
      <stop offset=".52" stop-color="#f3f4f4"/>
      <stop offset=".58" stop-color="#e4e5e5"/>
      <stop offset=".7" stop-color="#bfbec0"/>
      <stop offset=".86" stop-color="#847f84"/>
      <stop offset=".88" stop-color="#807b80"/>
      <stop offset="1" stop-color="#d1d3d4"/>
      <stop offset="1" stop-color="#a7a9ac"/>
    </linearGradient>
    <linearGradient id="linear-gradient-22" x1="466.32" y1="641.67" x2="481.11" y2="654.07" xlink:href="#linear-gradient-21"/>
  </defs>
  <g id="Layer_1-2" data-name="Layer 1">
    <g>
      <circle class="cls-8" cx="449.07" cy="371.75" r="371.75"/>
      <path class="cls-25" d="M449.07,40c44.79,0,88.24,8.77,129.13,26.06,39.5,16.71,74.98,40.63,105.46,71.1,30.47,30.47,54.4,65.95,71.1,105.46,17.29,40.89,26.06,84.33,26.06,129.13s-8.77,88.24-26.06,129.13c-16.71,39.5-40.63,74.98-71.1,105.46-30.47,30.47-65.95,54.4-105.46,71.1-40.89,17.29-84.33,26.06-129.13,26.06s-88.24-8.77-129.13-26.06c-39.5-16.71-74.98-40.63-105.46-71.1-30.47-30.47-54.4-65.95-71.1-105.46-17.29-40.89-26.06-84.33-26.06-129.13s8.77-88.24,26.06-129.13c16.71-39.5,40.63-74.98,71.1-105.46,30.47-30.47,65.95-54.4,105.46-71.1,40.89-17.29,84.33-26.06,129.13-26.06M449.07,21c-193.71,0-350.75,157.04-350.75,350.75s157.04,350.75,350.75,350.75,350.75-157.04,350.75-350.75S642.78,21,449.07,21h0Z"/>
      <g>
        <rect class="cls-27" x="358.49" y="84.5" width="220" height="150" rx="12.27" ry="12.27"/>
        <path class="cls-8" d="M543.77,102.5c2.56,7.9,8.81,14.15,16.71,16.71v80.57c-7.9,2.56-14.15,8.81-16.71,16.71h-150.58c-2.56-7.9-8.81-14.15-16.71-16.71v-80.57c7.9-2.56,14.15-8.81,16.71-16.71h150.58M550.51,94.5h-164.05c0,9.93-8.05,17.97-17.97,17.97v94.05c9.93,0,17.97,8.05,17.97,17.97h164.05c0-9.93,8.05-17.97,17.97-17.97v-94.05c-9.93,0-17.97-8.05-17.97-17.97h0Z"/>
        <path class="cls-8" d="M468.49,121.5c20.95,0,38,17.05,38,38s-17.05,38-38,38-38-17.05-38-38,17.05-38,38-38M468.49,113.5c-25.41,0-46,20.59-46,46s20.59,46,46,46,46-20.59,46-46-20.59-46-46-46h0Z"/>
        <g>
          <path class="cls-8" d="M453.47,172.99c3,1.58,7.81,3.15,12.68,3.15,5.25,0,8.03-2.18,8.03-5.48s-2.4-4.95-8.48-7.06c-8.41-3-13.96-7.66-13.96-15.01,0-8.63,7.28-15.16,19.14-15.16,5.78,0,9.91,1.13,12.91,2.55l-2.55,9.16c-1.95-.98-5.63-2.4-10.51-2.4s-7.36,2.33-7.36,4.88c0,3.23,2.78,4.65,9.38,7.13,8.93,3.3,13.06,7.96,13.06,15.09,0,8.48-6.45,15.69-20.34,15.69-5.78,0-11.48-1.58-14.34-3.15l2.33-9.38Z"/>
          <g>
            <rect class="cls-8" x="464.97" y="124.41" width="7.03" height="10.57"/>
            <rect class="cls-8" x="464.97" y="183.99" width="7.03" height="10.57"/>
          </g>
        </g>
      </g>
      <path class="cls-7" d="M692.45,165.44h-13.82v-12.02c0-7.37-5.98-13.35-13.35-13.35h-34.02c-7.37,0-13.35,5.98-13.35,13.35v12.02h-14.54c-2.4,0-4.27,2.07-4.02,4.46l6.14,60.25c.21,2.06,1.95,3.64,4.02,3.64h76.8c2.08,0,3.81-1.57,4.02-3.64l6.14-60.25c.24-2.38-1.63-4.46-4.02-4.46ZM624.94,226.27h-14.04v-12.96h14.04v12.96ZM624.94,206.09h-14.04v-12.96h14.04v12.96ZM624.94,185.9h-14.04v-12.96h14.04v12.96ZM645.17,226.27h-14.04v-12.96h14.04v12.96ZM645.17,206.09h-14.04v-12.96h14.04v12.96ZM645.17,185.9h-14.04v-12.96h14.04v12.96ZM665.41,226.27h-14.04v-12.96h14.04v12.96ZM665.41,206.09h-14.04v-12.96h14.04v12.96ZM665.41,185.9h-14.04v-12.96h14.04v12.96ZM670.35,165.44h-44.16v-12.02c0-2.8,2.27-5.07,5.07-5.07h34.02c2.8,0,5.07,2.27,5.07,5.07v12.02ZM685.65,226.27h-14.04v-12.96h14.04v12.96ZM685.65,206.09h-14.04v-12.96h14.04v12.96ZM685.65,185.9h-14.04v-12.96h14.04v12.96Z"/>
      <path class="cls-8" d="M0,261.89h886.13v209.1c0,14.61-11.86,26.47-26.47,26.47H26.47c-14.61,0-26.47-11.86-26.47-26.47v-209.1h0Z"/>
      <rect class="cls-8" x="8.76" y="346.57" width="868.61" height="244.96" rx="39.13" ry="39.13"/>
      <g>
        <path class="cls-4" d="M99.07,403.73v26.25c0,31.62-13.38,49.69-39.19,49.69s-39.19-18.07-39.19-49.69v-102.76c0-31.62,13.38-49.69,39.19-49.69s39.19,18.07,39.19,49.69v11.15l-24.85,8.05v-21.17c0-14.12-5.26-19.48-13.62-19.48s-13.62,5.36-13.62,19.48v106.71c0,14.12,5.26,19.2,13.62,19.2s13.62-5.08,13.62-19.2v-20.98l24.85-7.26Z"/>
        <path class="cls-10" d="M247.7,277.54c25.57,0,38.72,18.07,38.72,49.69v11.15l-24.85,8.05v-21.17c0-14.12-4.78-19.48-13.14-19.48s-13.14,5.36-13.14,19.48c0,40.65,51.38,48.27,51.38,104.73,0,31.62-13.38,49.69-39.19,49.69s-39.19-18.07-39.19-49.69v-19l24.85-7.26v28.23c0,14.12,5.26,19.2,13.62,19.2s13.62-5.08,13.62-19.2c0-40.65-51.38-48.27-51.38-104.73,0-31.62,13.14-49.69,38.72-49.69Z"/>
        <path class="cls-9" d="M328,477.42h-26.29v-197.61h26.29v84.69h29.87v-84.69h26.77v197.61h-26.77v-84.69h-29.87v84.69Z"/>
        <path class="cls-11" d="M482.38,325.25v7.06c0,20.33-5.26,33.31-16.97,39.81,14.1,6.49,19.6,21.46,19.6,42.35v16.09c0,30.49-13.62,46.86-39.91,46.86h-41.34v-197.61h39.67c27.24,0,38.95,14.96,38.95,45.45ZM430.04,308.03v52.23h10.28c9.8,0,15.77-5.08,15.77-20.89v-11.01c0-14.12-4.06-20.33-13.38-20.33h-12.67ZM430.04,388.49v60.69h15.06c8.84,0,13.62-4.8,13.62-19.48v-17.22c0-18.35-5.02-24-16.97-24h-11.71Z"/>
        <path class="cls-22" d="M670.92,279.8v27.67l-49.95,141.72h49.95v28.23h-76.95v-27.67l49.95-141.72h-47.56v-28.23h74.56Z"/>
        <path class="cls-18" d="M838.68,477.42c-1.43-5.08-2.39-8.19-2.39-24.28v-31.05c0-18.35-5.26-25.13-17.21-25.13h-9.08v80.46h-26.29v-197.61h39.67c27.24,0,38.95,14.96,38.95,45.45v15.53c0,20.33-5.5,33.59-17.21,40.09,13.14,6.49,17.45,21.46,17.45,42.06v30.49c0,9.6.24,16.66,2.87,24h-26.77ZM810.01,308.03v60.7h10.28c9.8,0,15.77-5.08,15.77-20.89v-19.48c0-14.12-4.06-20.33-13.38-20.33h-12.67Z"/>
        <path class="cls-13" d="M112.68,320.57v157.35h26.29v-61.2h29.87v61.2h26.77v-157.35c0-22.23-18.56-40.26-41.46-40.26h0c-22.9,0-41.46,18.02-41.46,40.26ZM138.97,388.49v-68.15c0-8.01,6.69-14.5,14.94-14.5h0c8.25,0,14.94,6.49,14.94,14.5v68.15h-29.87Z"/>
        <path class="cls-19" d="M499.38,320.57v157.35h26.29v-61.2h29.87v61.2h26.77v-157.35c0-22.23-18.56-40.26-41.46-40.26h0c-22.9,0-41.46,18.02-41.46,40.26ZM525.67,388.49v-68.15c0-8.01,6.69-14.5,14.94-14.5h0c8.25,0,14.94,6.49,14.94,14.5v68.15h-29.87Z"/>
        <path class="cls-5" d="M686,320.57v157.35h26.29v-61.2h29.87v61.2h26.77v-157.35c0-22.23-18.56-40.26-41.46-40.26h0c-22.9,0-41.46,18.02-41.46,40.26ZM712.29,388.49v-68.15c0-8.01,6.69-14.5,14.94-14.5h0c8.25,0,14.94,6.49,14.94,14.5v68.15h-29.87Z"/>
      </g>
      <path class="cls-26" d="M630.66,499.78v13h216.54v17.91h-216.54v13h216.54v5.24c0,6.99-5.68,12.67-12.67,12.67h-203.87v13h203.87c14.15,0,25.67-11.51,25.67-25.67v-49.15h-229.54ZM25.93,548.93c0,14.16,11.52,25.67,25.67,25.67h217.18v-13H51.6c-6.99,0-12.67-5.68-12.67-12.67v-5.24h229.85v-13H38.93v-17.91h229.85v-13H25.93v49.15Z"/>
      <g>
        <g>
          <circle class="cls-15" cx="213.96" cy="177.37" r="18.63"/>
          <g>
            <path class="cls-8" d="M222.1,169.95l-2.7,2.14c-.49-.67-1.15-1.19-1.98-1.53-.83-.35-1.68-.52-2.54-.52-2.02,0-3.68.69-4.96,2.08-1.28,1.39-1.93,3.12-1.93,5.2s.61,3.94,1.84,5.3c1.23,1.36,2.86,2.04,4.91,2.04s3.71-.77,4.84-2.31l2.84,2c-1.86,2.32-4.42,3.49-7.7,3.49s-5.66-.98-7.65-2.94c-1.99-1.96-2.98-4.48-2.98-7.58s1.02-5.65,3.05-7.55c2.03-1.9,4.62-2.85,7.75-2.85,1.39,0,2.75.26,4.09.77,1.34.52,2.38,1.27,3.13,2.26Z"/>
            <rect class="cls-8" x="212.47" y="162.23" width="2.98" height="30.28"/>
          </g>
        </g>
        <g>
          <circle class="cls-3" cx="213.96" cy="223.41" r="18.63"/>
          <g>
            <path class="cls-8" d="M222.1,215.99l-2.7,2.14c-.49-.67-1.15-1.19-1.98-1.53-.83-.35-1.68-.52-2.54-.52-2.02,0-3.68.69-4.96,2.08-1.28,1.39-1.93,3.12-1.93,5.2s.61,3.94,1.84,5.3c1.23,1.36,2.86,2.04,4.91,2.04s3.71-.77,4.84-2.31l2.84,2c-1.86,2.32-4.42,3.49-7.7,3.49s-5.66-.98-7.65-2.94c-1.99-1.96-2.98-4.48-2.98-7.58s1.02-5.65,3.05-7.55c2.03-1.9,4.62-2.85,7.75-2.85,1.39,0,2.75.26,4.09.77,1.34.52,2.38,1.27,3.13,2.26Z"/>
            <rect class="cls-8" x="212.47" y="208.27" width="2.98" height="30.28"/>
          </g>
        </g>
      </g>
      <g>
        <rect class="cls-20" x="244.01" y="125.35" width="20.07" height="123.39"/>
        <rect class="cls-6" x="280.79" y="108.13" width="20.07" height="140.61"/>
        <rect class="cls-2" x="317.58" y="89.61" width="20.07" height="159.13"/>
      </g>
      <g>
        <path class="cls-14" d="M331.02,548.54c1.05,0,2.29.4,3.73,1.19,4.03,2.24,8.19,3.36,12.47,3.36,2.34,0,4.19-.42,5.56-1.27,1.37-.85,2.05-1.97,2.05-3.36,0-1.19-.44-2.13-1.31-2.8-.87-.67-1.87-1.14-2.99-1.42-1.12-.27-3.02-.66-5.71-1.16-3.78-.65-7.09-1.41-9.93-2.28-2.84-.87-5.45-2.49-7.84-4.85-2.39-2.36-3.58-5.64-3.58-9.82s1.08-7.54,3.25-10.08c2.17-2.54,4.87-4.33,8.1-5.38,3.24-1.04,6.65-1.57,10.23-1.57,8.36,0,15.61,2.81,21.73,8.44l-3.73,5.08c-1.29,1.74-2.79,2.61-4.48,2.61-1.1,0-2.37-.37-3.81-1.12-3.29-1.64-6.65-2.46-10.08-2.46-4.93,0-7.39,1.37-7.39,4.11,0,1.1.41,1.95,1.23,2.58.82.62,1.87,1.11,3.14,1.46,1.27.35,3.1.72,5.49,1.12.5.05,1.24.18,2.24.37,3.88.7,7.08,1.47,9.6,2.31,2.51.85,4.74,2.42,6.68,4.71s2.91,5.53,2.91,9.71c0,5.72-1.92,10.07-5.75,13.03-3.83,2.96-9.06,4.44-15.68,4.44-5.38,0-9.92-.77-13.63-2.31-3.71-1.54-7.33-3.88-10.87-7.02l3.81-5c1.29-1.74,2.81-2.61,4.56-2.61Z"/>
        <path class="cls-1" d="M419.18,520.5c-1.02,1.02-2.5,1.53-4.44,1.53h-8.81v36.52c0,1.94-.51,3.42-1.53,4.44-1.02,1.02-2.5,1.53-4.44,1.53h-7.84v-42.49h-14.79v-6.2c0-1.94.51-3.42,1.53-4.44,1.02-1.02,2.5-1.53,4.44-1.53h37.41v6.2c0,1.94-.51,3.42-1.53,4.44Z"/>
        <path class="cls-24" d="M445.88,561.68c-4.38-2.54-7.82-5.96-10.31-10.27-2.49-4.31-3.73-9.05-3.73-14.23s1.24-9.86,3.73-14.19c2.49-4.33,5.92-7.77,10.31-10.31,4.38-2.54,9.26-3.81,14.64-3.81s10.33,1.27,14.71,3.81,7.82,5.97,10.31,10.31c2.49,4.33,3.73,9.06,3.73,14.19s-1.25,9.92-3.73,14.23c-2.49,4.31-5.92,7.73-10.31,10.27s-9.29,3.81-14.71,3.81-10.26-1.27-14.64-3.81ZM452.97,523.41c-2.29,1.37-4.1,3.26-5.41,5.68-1.32,2.42-1.98,5.12-1.98,8.1,0,3.14.66,5.91,1.98,8.33,1.32,2.42,3.12,4.28,5.41,5.6,2.29,1.32,4.8,1.98,7.54,1.98s5.25-.67,7.54-2.02c2.29-1.34,4.09-3.22,5.41-5.64,1.32-2.41,1.98-5.16,1.98-8.25s-.66-5.83-1.98-8.21c-1.32-2.39-3.12-4.26-5.41-5.6-2.29-1.34-4.81-2.02-7.54-2.02s-5.25.69-7.54,2.05Z"/>
        <path class="cls-17" d="M518.87,562.99c-1.02,1.02-2.5,1.53-4.44,1.53h-7.69v-54.66h23.82c6.92,0,12.18,1.77,15.79,5.3,3.61,3.54,5.41,8.24,5.41,14.11,0,3.78-.88,7.02-2.65,9.71-1.77,2.69-4.34,4.73-7.73,6.12l14.49,19.42h-11.95c-1.59,0-2.98-.3-4.14-.9-1.17-.6-2.2-1.54-3.1-2.84l-9.48-13.59h-6.8v11.35c0,1.94-.51,3.42-1.53,4.44ZM531.08,536.37c1.89,0,3.55-.65,4.97-1.94,1.42-1.29,2.13-3.01,2.13-5.15s-.7-4.01-2.09-5.3c-1.39-1.29-3.06-1.94-5-1.94h-10.68v14.34h10.68Z"/>
        <path class="cls-28" d="M583.05,530.91h22.03v5.45c0,1.94-.51,3.42-1.53,4.44s-2.5,1.53-4.44,1.53h-16.06v10.01h22.18c1.94,0,3.42.51,4.44,1.53,1.02,1.02,1.53,2.5,1.53,4.44v6.2h-41.82v-54.66h41.82v6.2c0,1.94-.51,3.42-1.53,4.44-1.02,1.02-2.5,1.53-4.44,1.53h-22.18v8.89Z"/>
        <path class="cls-21" d="M303.97,554.33c-.65-1.14-1.56-2.04-2.71-2.71-1.15-.67-2.44-1-3.86-1s-2.69.33-3.85,1c-1.15.67-2.05,1.57-2.71,2.71-.65,1.14-.98,2.38-.98,3.73s.33,2.61.98,3.74c.65,1.13,1.56,2.03,2.71,2.7,1.15.67,2.43,1,3.85,1s2.71-.33,3.86-1c1.15-.67,2.05-1.57,2.71-2.7.65-1.13.98-2.38.98-3.74s-.33-2.59-.98-3.73Z"/>
      </g>
      <path class="cls-16" d="M13.15,248.74h859.83c7.26,0,13.15,5.89,13.15,13.15H0C0,254.63,5.89,248.74,13.15,248.74Z"/>
      <g>
        <path class="cls-27" d="M523.24,615.59c0,1.78.72,3.39,1.89,4.56,1.17,1.17,2.78,1.89,4.57,1.89h88.49c-7.34,5.15-14.91,9.98-22.71,14.48h-85.74c-3.56,0-6.45,2.89-6.45,6.46,0,1.78.72,3.39,1.89,4.56,1.17,1.17,2.78,1.89,4.56,1.89h60.77c-38.79,17.84-81.95,27.79-127.44,27.79s-88.65-9.95-127.44-27.79h60.77c1.78,0,3.39-.72,4.56-1.89,1.17-1.17,1.89-2.78,1.89-4.56,0-3.57-2.89-6.46-6.45-6.46h-85.74c-7.8-4.5-15.37-9.33-22.71-14.48h88.49c1.79,0,3.4-.72,4.57-1.89,1.17-1.17,1.89-2.78,1.89-4.56,0-3.57-2.89-6.46-6.46-6.46h-105.6c-6.89-5.58-13.53-11.46-19.9-17.61h424.26c-6.37,6.15-13.01,12.03-19.9,17.61h-105.6c-3.57,0-6.46,2.89-6.46,6.46Z"/>
        <g>
          <path class="cls-8" d="M487.58,609.13h-89.02c-7.55,0-13.66,6.12-13.66,13.66v8.87c0,6.97,5.23,12.72,11.98,13.55-.15.87-.24,1.75-.24,2.66,0,8.72,7.07,15.78,15.78,15.78s15.78-7.07,15.78-15.78c0-.87-.09-1.71-.22-2.54h30.19c-.13.83-.22,1.68-.22,2.54,0,8.72,7.07,15.78,15.78,15.78s15.78-7.07,15.78-15.78c0-.91-.09-1.79-.24-2.66,6.75-.83,11.98-6.57,11.98-13.55v-8.87c0-7.55-6.12-13.66-13.66-13.66Z"/>
          <rect class="cls-27" x="398.94" y="623.41" width="88.26" height="7.63" rx="3.82" ry="3.82"/>
          <circle class="cls-23" cx="412.41" cy="647.87" r="9.65"/>
          <circle class="cls-12" cx="473.72" cy="647.87" r="9.65"/>
        </g>
      </g>
    </g>
  </g>
</svg>